<svg xmlns="http://www.w3.org/2000/svg" xmlns:xlink="http://www.w3.org/1999/xlink" width="48" height="48" viewBox="0 0 48 48"><defs><path id="6eu8a" d="M863 423.112c0-12.87-10.434-23.304-23.305-23.304-12.87 0-23.304 10.434-23.304 23.304v23.305l21.375-.085-.003-.001c.637.053 1.28.086 1.932.086.724 0 1.439-.038 2.146-.102h.015l-.002-.001h-.006C853.71 445.228 863 435.257 863 423.112z"/><path id="6eu8c" d="M833.654 419.916a2.757 2.757 0 1 0 0-5.514 2.757 2.757 0 0 0 0 5.514zm12.499 0a2.757 2.757 0 1 0 0-5.514 2.757 2.757 0 0 0 0 5.514zm-16.684 8.5c1.65 3.97 5.675 6.536 10.253 6.536 4.482 0 8.483-2.553 10.192-6.503a1.335 1.335 0 0 0-2.45-1.059c-1.284 2.975-4.325 4.895-7.742 4.895-3.498 0-6.555-1.92-7.79-4.893a1.335 1.335 0 0 0-2.463 1.024zm12.327 17.401c-1.386.126-2.463.14-4.032.015l-20.873.083v-22.803c0-12.574 10.23-22.804 22.803-22.804 12.576 0 22.806 10.23 22.806 22.804 0 11.863-8.897 21.624-20.698 22.705l.011.14zm-25.904 1.103l21.83-.091c1.54.128 2.717.116 4.169-.016l-.003-.065.006.064c12.316-1.128 21.606-11.317 21.606-23.7 0-13.126-10.679-23.804-23.806-23.804-13.125 0-23.802 10.678-23.802 23.807z"/><linearGradient id="6eu8b" x1="816.39" x2="863" y1="423.12" y2="423.12" gradientUnits="userSpaceOnUse"><stop offset="0" stop-color="#00e2bc"/><stop offset=".66" stop-color="#1d99e8"/><stop offset=".79" stop-color="#3f85e2"/><stop offset=".92" stop-color="#5976dd"/><stop offset="1" stop-color="#6371dc"/></linearGradient><linearGradient id="6eu8d" x1="815.89" x2="863.5" y1="423.11" y2="423.11" gradientUnits="userSpaceOnUse"><stop offset="0" stop-color="#00e2bc"/><stop offset=".66" stop-color="#1d99e8"/><stop offset=".79" stop-color="#3f85e2"/><stop offset=".92" stop-color="#5976dd"/><stop offset="1" stop-color="#6371dc"/></linearGradient></defs><g><g transform="translate(-816 -399)"><g><g opacity=".15"><use fill="url(#6eu8b)" xlink:href="#6eu8a"/></g></g><g><use fill="url(#6eu8d)" xlink:href="#6eu8c"/></g></g></g></svg>