<svg xmlns="http://www.w3.org/2000/svg" xmlns:xlink="http://www.w3.org/1999/xlink" width="46" height="44" viewBox="0 0 46 44"><defs><path id="nbsra" d="M432.986 410.842a.59.59 0 0 0-.589.59v33.978h-7.668v-7.905a2.556 2.556 0 0 0-2.555-2.555H400.4a.59.59 0 0 0-.59.589v2.865l-6.438-7.288 6.438-7.288v2.865a.59.59 0 0 0 .59.589h21.773a2.556 2.556 0 0 0 2.555-2.555v-13.296a.59.59 0 0 0-.589-.589h-2.865l7.288-6.438 7.288 6.438zm-4.032-7.667a.59.59 0 0 0-.781 0l-8.847 7.814a.59.59 0 0 0 .39 1.033h3.834v12.705a1.378 1.378 0 0 1-1.376 1.376H400.99v-3.834a.59.59 0 0 0-1.032-.39l-7.815 8.847a.59.59 0 0 0 0 .781l7.815 8.847a.59.59 0 0 0 1.032-.391v-3.833h21.183c.76 0 1.375.616 1.376 1.376V446c0 .326.264.59.59.59h8.846a.59.59 0 0 0 .59-.59v-33.979h3.834a.588.588 0 0 0 .39-1.032z"/><path id="nbsrc" d="M432.986 410.842a.59.59 0 0 0-.589.59v33.978h-7.668v-7.905a2.556 2.556 0 0 0-2.555-2.555H400.4a.59.59 0 0 0-.59.589v2.865l-6.438-7.288 6.438-7.288v2.865a.59.59 0 0 0 .59.589h21.773a2.556 2.556 0 0 0 2.555-2.555v-13.296a.59.59 0 0 0-.589-.589h-2.865l7.288-6.438 7.288 6.438z"/><path id="nbsre" d="M428.267 433.187a.59.59 0 0 0-.59.589v2.949a.59.59 0 1 0 1.179 0v-2.949a.59.59 0 0 0-.589-.589z"/><path id="nbsrg" d="M428.267 440.067a.59.59 0 0 0-.59.59v1.036a.59.59 0 1 0 1.179 0v-1.036a.59.59 0 0 0-.589-.59z"/><path id="nbsri" d="M428.267 426.306a.59.59 0 0 0-.59.59v2.949a.59.59 0 0 0 1.179 0v-2.949a.59.59 0 0 0-.589-.59z"/><path id="nbsrk" d="M428.267 419.425a.59.59 0 0 0-.59.59v2.949a.59.59 0 0 0 1.179 0v-2.949a.59.59 0 0 0-.589-.59z"/><path id="nbsrm" d="M427.677 413.134v2.949a.59.59 0 1 0 1.179 0v-2.949a.59.59 0 1 0-1.18 0z"/><path id="nbsro" d="M405.371 430.878h-2.95a.59.59 0 0 0 0 1.179h2.95a.59.59 0 0 0 0-1.179z"/><path id="nbsrq" d="M412.252 430.878h-2.949a.59.59 0 1 0 0 1.179h2.949a.59.59 0 1 0 0-1.179z"/><path id="nbsrs" d="M419.133 430.878h-2.949a.59.59 0 1 0 0 1.179h2.949a.59.59 0 1 0 0-1.179z"/><path id="nbsru" d="M426.014 430.878h-2.95a.59.59 0 1 0 0 1.179h2.95a.59.59 0 0 0 0-1.179z"/><linearGradient id="nbsrb" x1="415" x2="415" y1="14727.49" y2="14772.6" gradientUnits="userSpaceOnUse"><stop offset="0" stop-color="#00e2bc"/><stop offset=".66" stop-color="#1d99e8"/><stop offset=".79" stop-color="#3f85e2"/><stop offset=".92" stop-color="#5976dd"/><stop offset="1" stop-color="#6371dc"/></linearGradient><linearGradient id="nbsrd" x1="414.61" x2="414.61" y1="14731.02" y2="14773.49" gradientUnits="userSpaceOnUse"><stop offset="0" stop-color="#00e2bc"/><stop offset=".66" stop-color="#1d99e8"/><stop offset=".79" stop-color="#3f85e2"/><stop offset=".92" stop-color="#5976dd"/><stop offset="1" stop-color="#6371dc"/></linearGradient><linearGradient id="nbsrf" x1="428.27" x2="428.27" y1="14736.04" y2="14781.18" gradientUnits="userSpaceOnUse"><stop offset="0" stop-color="#00e2bc"/><stop offset=".66" stop-color="#1d99e8"/><stop offset=".79" stop-color="#3f85e2"/><stop offset=".92" stop-color="#5976dd"/><stop offset="1" stop-color="#6371dc"/></linearGradient><linearGradient id="nbsrh" x1="428.27" x2="428.27" y1="14690.38" y2="14735.37" gradientUnits="userSpaceOnUse"><stop offset="0" stop-color="#00e2bc"/><stop offset=".66" stop-color="#1d99e8"/><stop offset=".79" stop-color="#3f85e2"/><stop offset=".92" stop-color="#5976dd"/><stop offset="1" stop-color="#6371dc"/></linearGradient><linearGradient id="nbsrj" x1="428.27" x2="428.27" y1="14701.4" y2="14746.43" gradientUnits="userSpaceOnUse"><stop offset="0" stop-color="#00e2bc"/><stop offset=".66" stop-color="#1d99e8"/><stop offset=".79" stop-color="#3f85e2"/><stop offset=".92" stop-color="#5976dd"/><stop offset="1" stop-color="#6371dc"/></linearGradient><linearGradient id="nbsrl" x1="428.27" x2="428.27" y1="14732.55" y2="14777.68" gradientUnits="userSpaceOnUse"><stop offset="0" stop-color="#00e2bc"/><stop offset=".66" stop-color="#1d99e8"/><stop offset=".79" stop-color="#3f85e2"/><stop offset=".92" stop-color="#5976dd"/><stop offset="1" stop-color="#6371dc"/></linearGradient><linearGradient id="nbsrn" x1="428.27" x2="428.27" y1="14732.55" y2="14777.68" gradientUnits="userSpaceOnUse"><stop offset="0" stop-color="#00e2bc"/><stop offset=".66" stop-color="#1d99e8"/><stop offset=".79" stop-color="#3f85e2"/><stop offset=".92" stop-color="#5976dd"/><stop offset="1" stop-color="#6371dc"/></linearGradient><linearGradient id="nbsrp" x1="403.89" x2="403.89" y1="14738.93" y2="14784.08" gradientUnits="userSpaceOnUse"><stop offset="0" stop-color="#00e2bc"/><stop offset=".66" stop-color="#1d99e8"/><stop offset=".79" stop-color="#3f85e2"/><stop offset=".92" stop-color="#5976dd"/><stop offset="1" stop-color="#6371dc"/></linearGradient><linearGradient id="nbsrr" x1="410.78" x2="410.78" y1="14738.93" y2="14784.08" gradientUnits="userSpaceOnUse"><stop offset="0" stop-color="#00e2bc"/><stop offset=".66" stop-color="#1d99e8"/><stop offset=".79" stop-color="#3f85e2"/><stop offset=".92" stop-color="#5976dd"/><stop offset="1" stop-color="#6371dc"/></linearGradient><linearGradient id="nbsrt" x1="417.65" x2="417.65" y1="14738.93" y2="14784.08" gradientUnits="userSpaceOnUse"><stop offset="0" stop-color="#00e2bc"/><stop offset=".66" stop-color="#1d99e8"/><stop offset=".79" stop-color="#3f85e2"/><stop offset=".92" stop-color="#5976dd"/><stop offset="1" stop-color="#6371dc"/></linearGradient><linearGradient id="nbsrv" x1="424.54" x2="424.54" y1="14738.93" y2="14784.08" gradientUnits="userSpaceOnUse"><stop offset="0" stop-color="#00e2bc"/><stop offset=".66" stop-color="#1d99e8"/><stop offset=".79" stop-color="#3f85e2"/><stop offset=".92" stop-color="#5976dd"/><stop offset="1" stop-color="#6371dc"/></linearGradient></defs><g><g transform="translate(-392 -403)"><g><use fill="url(#nbsrb)" xlink:href="#nbsra"/></g><g opacity=".15"><use fill="url(#nbsrd)" xlink:href="#nbsrc"/></g><g><use fill="url(#nbsrf)" xlink:href="#nbsre"/></g><g><use fill="url(#nbsrh)" xlink:href="#nbsrg"/></g><g><use fill="url(#nbsrj)" xlink:href="#nbsri"/></g><g><use fill="url(#nbsrl)" xlink:href="#nbsrk"/></g><g><use fill="url(#nbsrn)" xlink:href="#nbsrm"/></g><g><use fill="url(#nbsrp)" xlink:href="#nbsro"/></g><g><use fill="url(#nbsrr)" xlink:href="#nbsrq"/></g><g><use fill="url(#nbsrt)" xlink:href="#nbsrs"/></g><g><use fill="url(#nbsrv)" xlink:href="#nbsru"/></g></g></g></svg>