<svg xmlns="http://www.w3.org/2000/svg" xmlns:xlink="http://www.w3.org/1999/xlink" width="112" height="131" viewBox="0 0 112 131"><defs><path id="tqbma" d="M904 351.874c0-30.928 25.072-56 56-56s56 25.072 56 56-25.072 56-56 56-56-25.072-56-56z"/><path id="tqbmc" d="M943.161 338.13l-2.913 1.988s.68 7.57 3.346 13.197h3.398z"/><path id="tqbmd" d="M976.839 338.13l2.913 1.988s-.68 7.57-3.346 13.197h-3.398z"/><path id="tqbme" d="M953.518 367.23a1.151 1.151 0 0 1-1.123-.897l-1.298-8.888a1.154 1.154 0 0 1 1.125-1.406h7.57v11.19zm6.274 0v-11.191h7.57c.74 0 1.287.686 1.125 1.406l-1.298 8.888c-.12.525-.585.896-1.123.896z"/><path id="tqbmg" d="M951.326 359.011l.623 4.267h15.686l.623-4.267z"/><path id="tqbmh" d="M946.992 294.674c-3.571 9.297-6.115 21.781-4.7 37.613 0 0 1.86 17.088 7.614 27.916h10.45v-65.529z"/><path id="tqbmi" d="M973.828 294.674h-13.471v65.529h9.513s6.6-9.136 7.952-29.27c.78-11.601-.151-24.847-3.994-36.26z"/><path id="tqbmj" d="M960.357 294.673V277.03a6.942 6.942 0 0 0-5.435 2.87c-2.488 3.427-5.456 8.336-7.93 14.774zm13.471 0c-1.888-5.612-4.482-10.781-7.926-15.092-1.417-1.774-3.49-2.615-5.545-2.552v17.644zm-26.837 58.642v-17.8l-14.77 10.078a7.714 7.714 0 0 0-3.365 6.372v1.35zm44.154 0v-1.35a7.718 7.718 0 0 0-3.366-6.372l-14.771-10.078v17.8z"/><path id="tqbml" d="M950.816 318.127c-2.221-5.27.25-11.342 5.52-13.564 5.269-2.22 11.341.25 13.562 5.52 2.222 5.27-.25 11.342-5.519 13.563-5.27 2.221-11.342-.25-13.563-5.52z"/><path id="tqbmn" d="M953.194 317.111a7.768 7.768 0 1 1 14.326-6.012 7.768 7.768 0 0 1-14.326 6.012z"/><path id="tqbmo" d="M959.985 363.859a1.95 1.95 0 0 1-1.949-1.949v-15.677a1.949 1.949 0 1 1 3.898 0v15.677a1.949 1.949 0 0 1-1.95 1.949z"/><path id="tqbmp" d="M952.922 316.357s4.442.721 7.063-3.697c1.78-3 .372-6.324.372-6.324s-4.671-.176-7.023 4.447c0 0-1.395 2.363-.412 5.574z"/><path id="tqbmq" d="M964.212 367.23h-8.424s-3.442 4.88-.686 12.692c0 0 .995 3.405 4.335 6.141a.853.853 0 0 0 1.126 0c3.34-2.736 4.335-6.141 4.335-6.141 2.756-7.812-.686-12.692-.686-12.692z"/><path id="tqbmr" d="M956.855 367.23s-2.759 5.752.104 11.54c.286.579.852.755 1.295.408l.914-.717v3.092c0 1.139.973 1.772 1.605 1.033 2.048-2.394 5.032-7.529 2.428-15.356z"/><path id="tqbms" d="M957.954 367.23s-1.434 2.101-.21 5.859c0 0 .343 1.085 1.159 1.821.265.24.596-.085.57-.566-.06-1.152-.022-2.955.732-3.576.708-.584 1.408.22 1.837.911.216.348.586.169.646-.309.135-1.076.129-2.744-.818-4.14z"/><linearGradient id="tqbmb" x1="999.6" x2="920.4" y1="312.27" y2="391.47" gradientUnits="userSpaceOnUse"><stop offset="0" stop-color="#00e2bc"/><stop offset=".66" stop-color="#1d99e8"/><stop offset=".79" stop-color="#3f85e2"/><stop offset=".92" stop-color="#5976dd"/><stop offset="1" stop-color="#6371dc"/></linearGradient><linearGradient id="tqbmf" x1="951.07" x2="968.52" y1="361.63" y2="361.63" gradientUnits="userSpaceOnUse"><stop offset="0" stop-color="#00e2bc"/><stop offset=".66" stop-color="#1d99e8"/><stop offset=".79" stop-color="#3f85e2"/><stop offset=".92" stop-color="#5976dd"/><stop offset="1" stop-color="#6371dc"/></linearGradient><linearGradient id="tqbmk" x1="928.86" x2="991.15" y1="315.17" y2="315.17" gradientUnits="userSpaceOnUse"><stop offset="0" stop-color="#00e2bc"/><stop offset=".66" stop-color="#1d99e8"/><stop offset=".79" stop-color="#3f85e2"/><stop offset=".92" stop-color="#5976dd"/><stop offset="1" stop-color="#6371dc"/></linearGradient><linearGradient id="tqbmm" x1="964.26" x2="956.45" y1="304.51" y2="323.7" gradientUnits="userSpaceOnUse"><stop offset="0" stop-color="#00e2bc"/><stop offset=".66" stop-color="#1d99e8"/><stop offset=".79" stop-color="#3f85e2"/><stop offset=".92" stop-color="#5976dd"/><stop offset="1" stop-color="#6371dc"/></linearGradient></defs><g><g opacity=".05" transform="translate(-904 -277)"><use fill="url(#tqbmb)" xlink:href="#tqbma"/></g><g opacity=".42" transform="translate(-904 -277)"><use fill="#c7c7c7" xlink:href="#tqbmc"/></g><g opacity=".42" transform="translate(-904 -277)"><use fill="#c7c7c7" xlink:href="#tqbmd"/></g><g transform="translate(-904 -277)"><use fill="url(#tqbmf)" xlink:href="#tqbme"/></g><g opacity=".63" transform="translate(-904 -277)"><use fill="#c7c7c7" xlink:href="#tqbmg"/></g><g transform="translate(-904 -277)"><use fill="#fff" xlink:href="#tqbmh"/></g><g transform="translate(-904 -277)"><use fill="#a5d0fa" xlink:href="#tqbmi"/></g><g transform="translate(-904 -277)"><use fill="url(#tqbmk)" xlink:href="#tqbmj"/></g><g transform="translate(-904 -277)"><use fill="url(#tqbmm)" xlink:href="#tqbml"/></g><g transform="translate(-904 -277)"><use fill="#fcd274" xlink:href="#tqbmn"/></g><g transform="translate(-904 -277)"><use fill="#2d95f5" xlink:href="#tqbmo"/></g><g opacity=".42" transform="translate(-904 -277)"><use fill="#fff" xlink:href="#tqbmp"/></g><g transform="translate(-904 -277)"><g><use fill="#fbae02" xlink:href="#tqbmq"/></g><g><use fill="#f5d850" xlink:href="#tqbmr"/></g><g><use fill="#faec96" xlink:href="#tqbms"/></g></g></g></svg>