<svg xmlns="http://www.w3.org/2000/svg" xmlns:xlink="http://www.w3.org/1999/xlink" width="49" height="44" viewBox="0 0 49 44"><defs><path id="h0b1a" d="M1285.919 409.889c6.847.574 10.943 8.077 7.714 14.261 0 0-1.128 2.785-1.237 3.962-.372 3.991 1.295 10.243 1.295 10.243h-9.813l-.882-3.506a1.513 1.513 0 0 0-1.473-1.143l-1.88.009h-.002l-.019-1.199.141-.002 2.587-.016a3.536 3.536 0 0 0 3.502-3.568l-.013-1.45c.047.002.096.002.144.002a3.175 3.175 0 0 0 3.147-3.204l-.001-.014-.005-.397a3.176 3.176 0 0 0-3.205-3.134z"/><path id="h0b1c" d="M1285.839 427.48a3.176 3.176 0 0 1-3.062-3.131l-.005-.397v-.045a3.176 3.176 0 0 1 6.352-.04l.005.397a3.174 3.174 0 0 1-3.132 3.218h-.014c-.048 0-.097 0-.144-.002z"/><path id="h0b1d" d="M1285.919 409.889v10.844a3.176 3.176 0 0 0-3.147 3.174v.045l.005.397a3.176 3.176 0 0 0 3.062 3.131l.013 1.45a3.536 3.536 0 0 1-3.502 3.568l-2.587.016-.14.002-.02-1.358h-3.568v-3.233h-3.106a.468.468 0 0 1-.438-.634l2.022-5.295s.005-1.997.016-2.188a10.534 10.534 0 0 1 11.39-9.919z"/><path id="h0b1f" d="M1278.083 439.093l-2.8-1.822 4.662-.987.987 4.663z"/><path id="h0b1g" d="M1279.641 433.715l.003.238-4.225.065a1.43 1.43 0 0 1-1.446-1.41v-.02c0-.783.63-1.421 1.413-1.43h4.216l.021 1.358z"/><path id="h0b1h" d="M1268.858 427.794a.447.447 0 0 1-.418.606h-2.964v3.3a2.236 2.236 0 0 1-2.236 2.236l-.064-.001c-.158-.005-1.791-.013-2.94-.017a1.443 1.443 0 0 0-1.405 1.091l-.842 3.346h-9.367s1.59-5.968 1.236-9.778c-.104-1.123-1.18-3.781-1.18-3.781-3.154-6.039 1.012-13.398 7.82-13.642a10.056 10.056 0 0 1 10.415 9.497c.01.183.015 2.088.015 2.088z"/><path id="h0b1j" d="M1261.567 406.885l2.8 1.822-4.661.987-.987-4.663z"/><path id="h0b1k" d="M1285.048 410.459l.113.001c.049 0 .1.003.15.004v9.716a3.797 3.797 0 0 0-3.147 3.727l.005.45a3.78 3.78 0 0 0 3.067 3.666l.008.912a2.931 2.931 0 0 1-2.898 2.955l-2.124.013-.012-.754a.608.608 0 0 0-.608-.599h-2.959v-2.625a.608.608 0 0 0-.608-.608h-2.903l1.949-5.104a.615.615 0 0 0 .04-.216c.002-.953.008-2.032.015-2.156a9.9 9.9 0 0 1 9.912-9.382zm.901 10.882a2.573 2.573 0 0 1 2.567 2.534l.005.398a2.568 2.568 0 0 1-2.533 2.602h-.005c-.04 0-.08 0-.118-.002h-.005a2.563 2.563 0 0 1-2.475-2.531l-.005-.434a2.576 2.576 0 0 1 2.545-2.567zm7.045-6.183a9.201 9.201 0 0 1 .1 8.711l-.025.053c-.119.294-1.164 2.903-1.279 4.133-.16 1.71.014 3.992.515 6.783a52.48 52.48 0 0 0 .608 2.909h-8.56l-.767-3.047a2.116 2.116 0 0 0-1.845-1.59l.615-.004a4.148 4.148 0 0 0 4.104-4.182l-.008-.867a3.781 3.781 0 0 0 3.285-3.801l-.005-.398a3.795 3.795 0 0 0-3.205-3.689v-9.594a9.011 9.011 0 0 1 6.467 4.583zm-17.582 18.252a.821.821 0 0 1-.83-.802v-.02a.824.824 0 0 1 .804-.822h3.617l.024 1.589zm-1.49-13.637c-.01.181-.015 1.613-.017 2.11l-1.982 5.191a1.076 1.076 0 0 0 1.006 1.46h2.498v2.017h-.048a2.044 2.044 0 0 0-2.014 2.037v.029a2.042 2.042 0 0 0 2.039 2.01h.024l4.225-.065a.605.605 0 0 0 .474-.241l1.398-.007h.004c.415 0 .776.282.877.684l.882 3.506c.068.271.311.46.59.46h9.813a.608.608 0 0 0 .588-.765c-.017-.061-1.635-6.192-1.277-10.03.082-.881.872-2.989 1.184-3.763a10.411 10.411 0 0 0-.126-9.833 10.208 10.208 0 0 0-8.885-5.328c-5.964-.069-10.924 4.572-11.253 10.528z"/><path id="h0b1m" d="M1261.21 407.378a.719.719 0 0 0 .054.035l1.542 1.003-2.631.557-.557-2.631zm-2.1 2.442c.07.328.393.538.722.469l4.661-.987a.608.608 0 0 0 .206-1.105l-2.244-1.46c4.36-5.292 12.183-6.047 17.475-1.688.2.166.397.338.587.516a.608.608 0 0 0 .83-.889c-5.498-5.142-14.123-4.854-19.265.643-.227.242-.444.493-.652.751l-2.38-1.548a.606.606 0 0 0-.926.635z"/><path id="h0b1o" d="M1279.476 437.005l.557 2.631-1.592-1.036a.834.834 0 0 0-.054-.035l-1.542-1.003zm-9.29 6.487a12.436 12.436 0 0 1-11.052-3.079.608.608 0 0 0-.83.889c5.497 5.142 14.122 4.854 19.265-.643.226-.242.444-.493.652-.751l2.38 1.548a.608.608 0 0 0 .926-.635l-.987-4.663a.61.61 0 0 0-.721-.469l-4.662.987a.61.61 0 0 0-.206 1.105l2.245 1.46a12.396 12.396 0 0 1-7.01 4.251z"/><path id="h0b1q" d="M1249.417 416.041a8.54 8.54 0 0 1 7.348-4.284l.107-.001a9.426 9.426 0 0 1 9.435 8.932c.006.119.012 1.147.014 2.052 0 .074.014.147.04.216l1.845 4.836h-2.73a.608.608 0 0 0-.608.608v3.3c0 .899-.729 1.628-1.63 1.628l-.043-.001c-.188-.006-2.073-.014-2.956-.017h-.009a2.047 2.047 0 0 0-1.989 1.551l-.726 2.886h-8.115c.42-1.755 1.352-6.128 1.064-9.226-.11-1.178-1.109-3.673-1.223-3.953a.517.517 0 0 0-.024-.053 8.727 8.727 0 0 1 .2-8.474zm-.164 12.593c.34 3.657-1.203 9.507-1.219 9.565a.608.608 0 0 0 .588.765h9.367c.28 0 .522-.19.59-.46l.842-3.346a.835.835 0 0 1 .81-.632h.004c1.272.005 2.785.013 2.922.017a2.857 2.857 0 0 0 2.064-.802 2.818 2.818 0 0 0 .863-2.04v-2.693h2.357a1.056 1.056 0 0 0 .985-1.431l-1.89-4.951a119.36 119.36 0 0 0-.015-2.008 10.641 10.641 0 0 0-11.044-10.071 9.75 9.75 0 0 0-8.112 4.882 9.94 9.94 0 0 0-.24 9.622c.298.739 1.05 2.744 1.128 3.583z"/><linearGradient id="h0b1b" x1="1279.62" x2="1294.76" y1="424.12" y2="424.12" gradientUnits="userSpaceOnUse"><stop offset="0" stop-color="#00e2bc"/><stop offset=".66" stop-color="#1d99e8"/><stop offset=".79" stop-color="#3f85e2"/><stop offset=".92" stop-color="#5976dd"/><stop offset="1" stop-color="#6371dc"/></linearGradient><linearGradient id="h0b1e" x1="1272.46" x2="1285.92" y1="421.19" y2="421.19" gradientUnits="userSpaceOnUse"><stop offset="0" stop-color="#00e2bc"/><stop offset=".66" stop-color="#1d99e8"/><stop offset=".79" stop-color="#3f85e2"/><stop offset=".92" stop-color="#5976dd"/><stop offset="1" stop-color="#6371dc"/></linearGradient><linearGradient id="h0b1i" x1="1247.61" x2="1268.89" y1="424.76" y2="424.76" gradientUnits="userSpaceOnUse"><stop offset="0" stop-color="#00e2bc"/><stop offset=".66" stop-color="#1d99e8"/><stop offset=".79" stop-color="#3f85e2"/><stop offset=".92" stop-color="#5976dd"/><stop offset="1" stop-color="#6371dc"/></linearGradient><linearGradient id="h0b1l" x1="1271.85" x2="1295.36" y1="424.1" y2="424.1" gradientUnits="userSpaceOnUse"><stop offset="0" stop-color="#00e2bc"/><stop offset=".66" stop-color="#1d99e8"/><stop offset=".79" stop-color="#3f85e2"/><stop offset=".92" stop-color="#5976dd"/><stop offset="1" stop-color="#6371dc"/></linearGradient><linearGradient id="h0b1n" x1="1258.11" x2="1281.54" y1="405.65" y2="405.65" gradientUnits="userSpaceOnUse"><stop offset="0" stop-color="#00e2bc"/><stop offset=".66" stop-color="#1d99e8"/><stop offset=".79" stop-color="#3f85e2"/><stop offset=".92" stop-color="#5976dd"/><stop offset="1" stop-color="#6371dc"/></linearGradient><linearGradient id="h0b1p" x1="1258.11" x2="1281.54" y1="440.33" y2="440.33" gradientUnits="userSpaceOnUse"><stop offset="0" stop-color="#00e2bc"/><stop offset=".66" stop-color="#1d99e8"/><stop offset=".79" stop-color="#3f85e2"/><stop offset=".92" stop-color="#5976dd"/><stop offset="1" stop-color="#6371dc"/></linearGradient><linearGradient id="h0b1r" x1="1247" x2="1269.5" y1="424.75" y2="424.75" gradientUnits="userSpaceOnUse"><stop offset="0" stop-color="#00e2bc"/><stop offset=".66" stop-color="#1d99e8"/><stop offset=".79" stop-color="#3f85e2"/><stop offset=".92" stop-color="#5976dd"/><stop offset="1" stop-color="#6371dc"/></linearGradient></defs><g><g transform="translate(-1247 -401)"><g opacity=".15"><use fill="url(#h0b1b)" xlink:href="#h0b1a"/></g><g><use fill="#6fe3ff" xlink:href="#h0b1c"/></g><g opacity=".15"><use fill="url(#h0b1e)" xlink:href="#h0b1d"/></g><g><use fill="#6fe3ff" xlink:href="#h0b1f"/></g><g><use fill="#6fe3ff" xlink:href="#h0b1g"/></g><g opacity=".15"><use fill="url(#h0b1i)" xlink:href="#h0b1h"/></g><g><use fill="#6fe3ff" xlink:href="#h0b1j"/></g><g><use fill="url(#h0b1l)" xlink:href="#h0b1k"/></g><g><use fill="url(#h0b1n)" xlink:href="#h0b1m"/></g><g><use fill="url(#h0b1p)" xlink:href="#h0b1o"/></g><g><use fill="url(#h0b1r)" xlink:href="#h0b1q"/></g></g></g></svg>