<svg xmlns="http://www.w3.org/2000/svg" xmlns:xlink="http://www.w3.org/1999/xlink" width="149" height="41" viewBox="0 0 149 41"><defs><path id="ko4ea" d="M47.993 65.894c.621-4.969 3.417-7.454 3.417-7.454a15.474 15.474 0 0 1 3.693-10.054 15.602 15.602 0 0 1 4.543-3.661 15.464 15.464 0 0 1 7.294-1.815c8.577 0 15.53 6.953 15.53 15.53 0 8.577-6.642 16.151-15.22 16.151-4.659 0-7.454-1.242-9.939-3.106-3.727-3.106-1.864-6.833-1.864-6.833.622-1.864 3.466-4.817 6.834-1.864 4.348 4.349-1.864 7.455-1.864 7.455 1.864 2.485 5.591 1.864 5.591 1.864 3.106-3.107 3.296-7.048 2.485-9.319-1.864-6.833-10.75-7.717-14.288-4.969-6.6 5.127-4.348 11.803-2.838 13.954 1.47 2.118 3.645 4.09 5.944 5.303 2.853 1.506 6.178 1.864 9.629 1.864 11.322 0 20.5-9.178 20.5-20.5s-9.178-20.5-20.5-20.5-20.853 9.184-20.5 20.5c.059 1.903.31 4.97 1.553 7.454"/><path id="ko4ec" d="M92.981 60.751v-6.375h.792v6.413c0 1.886 1.151 3.017 2.961 3.017 1.83 0 2.999-1.131 2.999-3.036v-6.394h.792v6.356c0 2.32-1.471 3.829-3.791 3.829-2.319 0-3.753-1.509-3.753-3.81z"/><path id="ko4ed" d="M105.05 54.376h2.98v.736h-2.98v6.13c0 1.848 1 2.527 2.415 2.527.282 0 .546-.019.848-.076v.717a6.255 6.255 0 0 1-.943.076c-1.81 0-3.112-1.019-3.112-3.207v-6.167h-1.546v-.736h1.565v-2.357h.773z"/><path id="ko4ee" d="M110.443 54.376h.642l.075 1.868h.019c.603-1.396 1.942-1.962 2.961-1.962.207 0 .434.019.603.038v.773a5.691 5.691 0 0 0-.603-.038c-1.415 0-2.886 1-2.905 2.999v6.337h-.792z"/><path id="ko4ef" d="M123.626 58.941c-.037-2.716-1.64-3.98-3.338-3.98-1.924 0-3.659 1.509-3.829 3.98zm.754.716h-7.939c.132 2.584 1.753 4.149 4.017 4.149 1.207 0 2.489-.433 3.564-1.452v.925a5.588 5.588 0 0 1-3.602 1.282c-2.81 0-4.772-1.999-4.772-5.149 0-3.244 2.226-5.205 4.64-5.205 2.225 0 4.13 1.697 4.13 4.979 0 .188-.018.358-.038.471z"/><path id="ko4eg" d="M135.016 59.374c0-2.678-1.753-4.394-3.847-4.394-2.075 0-3.848 1.697-3.848 4.413 0 2.697 1.792 4.413 3.867 4.413 2.056 0 3.828-1.716 3.828-4.432zm-8.487.019c0-3.206 2.207-5.186 4.565-5.186 1.603 0 3.206.886 3.941 2.678l.113-2.509h.623v10.015h-.623l-.113-2.508c-.735 1.81-2.338 2.678-3.923 2.678-2.376 0-4.583-1.98-4.583-5.168z"/><path id="ko4eh" d="M143.484 63.806c.792 0 1.829-.188 2.697-.829v.886c-.774.472-1.717.698-2.697.698-2.716 0-4.847-2.169-4.847-5.187 0-2.942 2.112-5.167 4.828-5.167.924 0 1.867.169 2.716.716v.887c-.887-.641-1.792-.83-2.735-.83-2.094 0-4.017 1.716-4.017 4.394 0 2.735 1.943 4.432 4.055 4.432z"/><path id="ko4ei" d="M149.763 55.961h.019c.566-1.094 1.811-1.754 3.169-1.754 2.15 0 3.545 1.263 3.545 3.545v6.639h-.792v-6.356c0-1.999-1-3.055-2.81-3.055-1.641 0-3.131.943-3.131 2.886v6.525h-.792V49.398h.792z"/><path id="ko4ej" d="M167.245 54.961c0-1.905-1.376-2.961-3.564-2.961h-1.83v6.016h1.83c2.188 0 3.564-1.131 3.564-3.055zm-7.148-4.602h3.433c3.319 0 5.488 1.698 5.488 4.564 0 2.848-2.112 4.715-5.432 4.715h-1.735v4.753h-1.754z"/><path id="ko4ek" d="M171.337 49.303h1.735v15.088h-1.735z"/><path id="ko4el" d="M176.146 60.468v-6.28h1.735v6.318c0 1.566.924 2.489 2.414 2.489 1.528 0 2.49-.923 2.49-2.489v-6.318h1.735v6.28c0 2.452-1.603 4.15-4.225 4.15-2.603 0-4.149-1.698-4.149-4.15z"/><path id="ko4em" d="M193.836 54.848v1.716c-.736-.622-1.849-1.056-3.056-1.056-1.282 0-1.999.547-1.999 1.377 0 .905.887 1.245 2.263 1.641 1.566.452 3.339.962 3.339 3.017 0 1.868-1.453 3.075-3.81 3.075-1.32 0-2.584-.378-3.527-1.132v-1.867a4.841 4.841 0 0 0 3.47 1.452c1.377 0 2.169-.604 2.169-1.509 0-.981-.962-1.301-2.433-1.754-1.678-.509-3.168-1.056-3.168-2.848 0-1.716 1.414-2.998 3.678-2.998 1.169 0 2.357.339 3.074.886z"/><linearGradient id="ko4eb" x1="81.4" x2="52.27" y1="43.91" y2="73.04" gradientUnits="userSpaceOnUse"><stop offset="0" stop-color="#00e2bc"/><stop offset=".66" stop-color="#1d99e8"/><stop offset=".79" stop-color="#3f85e2"/><stop offset=".92" stop-color="#5976dd"/><stop offset="1" stop-color="#6371dc"/></linearGradient></defs><g><g transform="translate(-46 -38)"><g><use fill="url(#ko4eb)" xlink:href="#ko4ea"/></g><g><g><g><use fill="#4d4d4d" xlink:href="#ko4ec"/></g><g><use fill="#4d4d4d" xlink:href="#ko4ed"/></g><g><use fill="#4d4d4d" xlink:href="#ko4ee"/></g><g><use fill="#4d4d4d" xlink:href="#ko4ef"/></g><g><use fill="#4d4d4d" xlink:href="#ko4eg"/></g><g><use fill="#4d4d4d" xlink:href="#ko4eh"/></g><g><use fill="#4d4d4d" xlink:href="#ko4ei"/></g><g><use fill="#4d4d4d" xlink:href="#ko4ej"/></g><g><use fill="#4d4d4d" xlink:href="#ko4ek"/></g><g><use fill="#4d4d4d" xlink:href="#ko4el"/></g><g><use fill="#4d4d4d" xlink:href="#ko4em"/></g></g></g></g></g></svg>